<?xml version="1.0" standalone="no"?>
<!DOCTYPE svg PUBLIC "-//W3C//DTD SVG 20010904//EN"
 "http://www.w3.org/TR/2001/REC-SVG-20010904/DTD/svg10.dtd">
<svg version="1.0" xmlns="http://www.w3.org/2000/svg"
 width="100.000000pt" height="100.000000pt" viewBox="0 0 100.000000 100.000000"
 preserveAspectRatio="xMidYMid meet">
<metadata>
Created by potrace 1.11, written by Peter Selinger 2001-2013
</metadata>
<g transform="translate(0.000000,100.000000) scale(0.100000,-0.100000)"
fill="#000000" stroke="none">
<path d="M130 870 c-8 -5 -11 -10 -6 -10 5 0 -6 -10 -24 -22 -18 -13 -41 -34
-51 -48 -20 -28 -38 -107 -22 -97 6 4 8 -16 5 -51 l-4 -57 26 30 c14 17 25 24
26 18 0 -10 6 -10 24 -1 26 11 61 4 52 -11 -3 -4 3 -16 14 -26 23 -21 47 -90
56 -165 12 -94 42 -139 121 -179 45 -22 145 -29 172 -12 10 7 23 2 43 -14 94
-79 254 -69 340 22 63 66 84 174 53 263 -9 25 -15 77 -15 126 0 50 -4 84 -10
84 -6 0 -34 -13 -63 -28 -48 -26 -60 -28 -148 -27 -84 2 -101 6 -141 29 -25
14 -50 26 -56 26 -8 0 -12 -26 -12 -80 0 -53 -5 -91 -15 -111 -9 -16 -19 -55
-24 -87 l-7 -57 -14 42 c-10 34 -11 57 -2 112 19 109 15 161 -13 218 -26 51
-72 91 -128 112 -35 14 -157 14 -177 1z m700 -420 c0 -97 -1 -101 -25 -112
-29 -13 -55 3 -55 33 0 20 35 44 50 34 6 -4 10 10 10 34 0 45 -2 46 -66 30
l-44 -11 0 -68 c0 -73 -12 -94 -51 -88 -52 7 -45 68 7 68 23 0 24 3 24 69 l0
68 73 20 c39 11 73 21 75 22 1 0 2 -44 2 -99z"/>
</g>
</svg>
